<svg width="106" height="106" viewBox="0 0 106 106" fill="none" xmlns="http://www.w3.org/2000/svg">
<g filter="url(#filter0_d_6650_89948)">
<rect x="16.875" y="2" width="72" height="72" rx="12" fill="#F8F8F8" fill-opacity="0.06" shape-rendering="crispEdges"/>
<rect x="17.625" y="2.75" width="70.5" height="70.5" rx="11.25" stroke="url(#paint0_linear_6650_89948)" stroke-opacity="0.15" stroke-width="1.5" shape-rendering="crispEdges"/>
<rect x="30.875" y="16" width="44" height="44" rx="22" fill="#F8F8F8" fill-opacity="0.13"/>
<path d="M53.0745 38.9039L46.7563 32.5309C46.562 32.335 46.4649 32.237 46.3516 32.167C46.2511 32.1048 46.1415 32.0591 46.0269 32.0313C45.8976 32 45.7603 32 45.4855 32H42.7971C42.1681 32 41.8536 32 41.6133 32.1235C41.4019 32.2321 41.2301 32.4054 41.1224 32.6186C41 32.861 41 33.1782 41 33.8127V42.4373C41 43.0718 41 43.389 41.1224 43.6314C41.2301 43.8446 41.4019 44.0179 41.6133 44.1265C41.8536 44.25 42.1681 44.25 42.7971 44.25H51.2774C51.9064 44.25 52.2209 44.25 52.4612 44.1265C52.6726 44.0179 52.8444 43.8446 52.9521 43.6314C53.0745 43.389 53.0745 43.0718 53.0745 42.4373V38.9039ZM53.0745 38.9039L57.8483 43.7191C58.0425 43.915 58.1397 44.013 58.253 44.083C58.3535 44.1452 58.4631 44.1909 58.5777 44.2187C58.7069 44.25 58.8443 44.25 59.119 44.25H59.4276C62.7813 44.25 65.5 41.5077 65.5 38.125C65.5 34.7423 62.7813 32 59.4276 32H54.8716C54.2426 32 53.928 32 53.6878 32.1235C53.4764 32.2321 53.3046 32.4054 53.1969 32.6186C53.0745 32.861 53.0745 33.1782 53.0745 33.8127V38.9039Z" stroke="white"/>
</g>
<defs>
<filter id="filter0_d_6650_89948" x="-13.125" y="-28" width="132" height="133.2" filterUnits="userSpaceOnUse" color-interpolation-filters="sRGB">
<feFlood flood-opacity="0" result="BackgroundImageFix"/>
<feColorMatrix in="SourceAlpha" type="matrix" values="0 0 0 0 0 0 0 0 0 0 0 0 0 0 0 0 0 0 127 0" result="hardAlpha"/>
<feOffset dy="15"/>
<feGaussianBlur stdDeviation="8.1"/>
<feComposite in2="hardAlpha" operator="out"/>
<feColorMatrix type="matrix" values="0 0 0 0 0 0 0 0 0 0 0 0 0 0 0 0 0 0 0.1 0"/>
<feBlend mode="normal" in2="BackgroundImageFix" result="effect1_dropShadow_6650_89948"/>
<feBlend mode="normal" in="SourceGraphic" in2="effect1_dropShadow_6650_89948" result="shape"/>
</filter>
<linearGradient id="paint0_linear_6650_89948" x1="35.875" y1="2" x2="81.8904" y2="75.2438" gradientUnits="userSpaceOnUse">
<stop stop-color="white" stop-opacity="0.62"/>
<stop offset="0.4" stop-color="white" stop-opacity="0.01"/>
<stop offset="0.6" stop-color="white" stop-opacity="0.01"/>
<stop offset="1" stop-color="white" stop-opacity="0.1"/>
</linearGradient>
</defs>
</svg>
