<svg width="106" height="106" viewBox="0 0 106 106" fill="none" xmlns="http://www.w3.org/2000/svg">
<g filter="url(#filter0_d_6650_89953)">
<rect x="17.125" y="2" width="72" height="72" rx="12" fill="#F8F8F8" fill-opacity="0.06" shape-rendering="crispEdges"/>
<rect x="17.875" y="2.75" width="70.5" height="70.5" rx="11.25" stroke="url(#paint0_linear_6650_89953)" stroke-opacity="0.15" stroke-width="1.5" shape-rendering="crispEdges"/>
<rect x="31.125" y="16" width="44" height="44" rx="22" fill="#F8F8F8" fill-opacity="0.13"/>
<g clip-path="url(#clip0_6650_89953)">
<path d="M62 36.663C62 32.439 57.959 29 53 29C48.041 29 44 32.439 44 36.663C44 40.446 47.201 43.621 51.527 44.223C52.58 44.462 52.459 44.867 52.223 46.356C52.184 46.594 52.039 47.288 53 46.868C53.96 46.448 58.18 43.667 60.073 41.388C61.377 39.884 62 38.359 62 36.673V36.663Z" stroke="white" stroke-linecap="round" stroke-linejoin="round"/>
</g>
</g>
<defs>
<filter id="filter0_d_6650_89953" x="-12.875" y="-28" width="132" height="133.2" filterUnits="userSpaceOnUse" color-interpolation-filters="sRGB">
<feFlood flood-opacity="0" result="BackgroundImageFix"/>
<feColorMatrix in="SourceAlpha" type="matrix" values="0 0 0 0 0 0 0 0 0 0 0 0 0 0 0 0 0 0 127 0" result="hardAlpha"/>
<feOffset dy="15"/>
<feGaussianBlur stdDeviation="8.1"/>
<feComposite in2="hardAlpha" operator="out"/>
<feColorMatrix type="matrix" values="0 0 0 0 0 0 0 0 0 0 0 0 0 0 0 0 0 0 0.1 0"/>
<feBlend mode="normal" in2="BackgroundImageFix" result="effect1_dropShadow_6650_89953"/>
<feBlend mode="normal" in="SourceGraphic" in2="effect1_dropShadow_6650_89953" result="shape"/>
</filter>
<linearGradient id="paint0_linear_6650_89953" x1="36.125" y1="2" x2="82.1404" y2="75.2438" gradientUnits="userSpaceOnUse">
<stop stop-color="white" stop-opacity="0.62"/>
<stop offset="0.4" stop-color="white" stop-opacity="0.01"/>
<stop offset="0.6" stop-color="white" stop-opacity="0.01"/>
<stop offset="1" stop-color="white" stop-opacity="0.1"/>
</linearGradient>
<clipPath id="clip0_6650_89953">
<rect width="24" height="24" fill="white" transform="translate(41 26)"/>
</clipPath>
</defs>
</svg>
