<svg width="106" height="106" viewBox="0 0 106 106" fill="none" xmlns="http://www.w3.org/2000/svg">
<g filter="url(#filter0_d_7165_89490)">
<rect x="17" y="2" width="72" height="72" rx="12" fill="#F8F8F8" fill-opacity="0.06" shape-rendering="crispEdges"/>
<rect x="17.75" y="2.75" width="70.5" height="70.5" rx="11.25" stroke="url(#paint0_linear_7165_89490)" stroke-opacity="0.15" stroke-width="1.5" shape-rendering="crispEdges"/>
<rect x="31" y="16" width="44" height="44" rx="22" fill="#F8F8F8" fill-opacity="0.13"/>
<path d="M42.5977 41.6922C42.5977 40.6768 43.4207 39.8538 44.4361 39.8538H49.3385V47.8202H44.4361C43.4207 47.8202 42.5977 46.9971 42.5977 45.9818V41.6922Z" fill="white"/>
<path d="M49.3385 29.4361C49.3385 28.4207 50.1616 27.5977 51.1769 27.5977H54.2409C55.2563 27.5977 56.0794 28.4207 56.0794 29.4361V47.8202H49.3385V29.4361Z" fill="white"/>
<path d="M56.0794 33.7257H60.9818C61.9971 33.7257 62.8202 34.5488 62.8202 35.5641V45.9818C62.8202 46.9971 61.9971 47.8202 60.9818 47.8202H56.0794V33.7257Z" fill="white"/>
<path d="M49.3385 47.8202V39.8538H44.4361C43.4207 39.8538 42.5977 40.6768 42.5977 41.6922V45.9818C42.5977 46.9971 43.4207 47.8202 44.4361 47.8202H49.3385ZM49.3385 47.8202H56.0794M49.3385 47.8202V29.4361C49.3385 28.4207 50.1616 27.5977 51.1769 27.5977H54.2409C55.2563 27.5977 56.0794 28.4207 56.0794 29.4361V47.8202M56.0794 47.8202H60.9818C61.9971 47.8202 62.8202 46.9971 62.8202 45.9818V35.5641C62.8202 34.5488 61.9971 33.7257 60.9818 33.7257H56.0794V47.8202Z" stroke="#4F4F4F" stroke-linecap="square" stroke-linejoin="round"/>
</g>
<defs>
<filter id="filter0_d_7165_89490" x="-13" y="-28" width="132" height="133.2" filterUnits="userSpaceOnUse" color-interpolation-filters="sRGB">
<feFlood flood-opacity="0" result="BackgroundImageFix"/>
<feColorMatrix in="SourceAlpha" type="matrix" values="0 0 0 0 0 0 0 0 0 0 0 0 0 0 0 0 0 0 127 0" result="hardAlpha"/>
<feOffset dy="15"/>
<feGaussianBlur stdDeviation="8.1"/>
<feComposite in2="hardAlpha" operator="out"/>
<feColorMatrix type="matrix" values="0 0 0 0 0 0 0 0 0 0 0 0 0 0 0 0 0 0 0.1 0"/>
<feBlend mode="normal" in2="BackgroundImageFix" result="effect1_dropShadow_7165_89490"/>
<feBlend mode="normal" in="SourceGraphic" in2="effect1_dropShadow_7165_89490" result="shape"/>
</filter>
<linearGradient id="paint0_linear_7165_89490" x1="36" y1="2" x2="82.0154" y2="75.2438" gradientUnits="userSpaceOnUse">
<stop stop-color="white" stop-opacity="0.62"/>
<stop offset="0.4" stop-color="white" stop-opacity="0.01"/>
<stop offset="0.6" stop-color="white" stop-opacity="0.01"/>
<stop offset="1" stop-color="white" stop-opacity="0.1"/>
</linearGradient>
</defs>
</svg>
