<svg width="106" height="106" viewBox="0 0 106 106" fill="none" xmlns="http://www.w3.org/2000/svg">
<g filter="url(#filter0_d_7165_89537)">
<rect x="17" y="2" width="72" height="72" rx="12" fill="#F8F8F8" fill-opacity="0.06" shape-rendering="crispEdges"/>
<rect x="17.75" y="2.75" width="70.5" height="70.5" rx="11.25" stroke="url(#paint0_linear_7165_89537)" stroke-opacity="0.15" stroke-width="1.5" shape-rendering="crispEdges"/>
<rect x="31" y="16" width="44" height="44" rx="22" fill="#F8F8F8" fill-opacity="0.13"/>
<path fill-rule="evenodd" clip-rule="evenodd" d="M54.125 30.125C54.125 29.5037 53.6213 29 53 29C52.3787 29 51.875 29.5037 51.875 30.125V32.9375C51.875 35.1121 50.1121 36.875 47.9375 36.875H45.125C44.5037 36.875 44 37.3787 44 38C44 38.6213 44.5037 39.125 45.125 39.125H47.9375C50.1121 39.125 51.875 40.8879 51.875 43.0625V45.875C51.875 46.4963 52.3787 47 53 47C53.6213 47 54.125 46.4963 54.125 45.875V43.0625C54.125 40.8879 55.8879 39.125 58.0625 39.125H60.875C61.4963 39.125 62 38.6213 62 38C62 37.3787 61.4963 36.875 60.875 36.875L58.0625 36.875C55.8879 36.875 54.125 35.1121 54.125 32.9375V30.125Z" fill="white"/>
</g>
<defs>
<filter id="filter0_d_7165_89537" x="-13" y="-28" width="132" height="133.2" filterUnits="userSpaceOnUse" color-interpolation-filters="sRGB">
<feFlood flood-opacity="0" result="BackgroundImageFix"/>
<feColorMatrix in="SourceAlpha" type="matrix" values="0 0 0 0 0 0 0 0 0 0 0 0 0 0 0 0 0 0 127 0" result="hardAlpha"/>
<feOffset dy="15"/>
<feGaussianBlur stdDeviation="8.1"/>
<feComposite in2="hardAlpha" operator="out"/>
<feColorMatrix type="matrix" values="0 0 0 0 0 0 0 0 0 0 0 0 0 0 0 0 0 0 0.1 0"/>
<feBlend mode="normal" in2="BackgroundImageFix" result="effect1_dropShadow_7165_89537"/>
<feBlend mode="normal" in="SourceGraphic" in2="effect1_dropShadow_7165_89537" result="shape"/>
</filter>
<linearGradient id="paint0_linear_7165_89537" x1="36" y1="2" x2="82.0154" y2="75.2438" gradientUnits="userSpaceOnUse">
<stop stop-color="white" stop-opacity="0.62"/>
<stop offset="0.4" stop-color="white" stop-opacity="0.01"/>
<stop offset="0.6" stop-color="white" stop-opacity="0.01"/>
<stop offset="1" stop-color="white" stop-opacity="0.1"/>
</linearGradient>
</defs>
</svg>
