<svg width="63" height="36" viewBox="0 0 63 36" fill="none" xmlns="http://www.w3.org/2000/svg">
<path d="M10.1811 29.25C8.71757 29.25 7.98581 29.25 7.42682 28.9627C6.93512 28.71 6.53535 28.3068 6.28482 27.8108C6 27.247 6 26.5089 6 25.0327V4.96734C6 3.49113 6 2.75303 6.28482 2.18919C6.53535 1.69323 6.93512 1.29 7.42682 1.03729C7.98581 0.75 8.71757 0.75 10.1811 0.75H16.4358C17.0749 0.75 17.3945 0.75 17.6952 0.822828C17.9619 0.887398 18.2168 0.993897 18.4506 1.13842C18.7143 1.30142 18.9403 1.52936 19.3922 1.98523L34.0917 16.8121V4.96734C34.0917 3.49113 34.0917 2.75303 34.3765 2.18919C34.627 1.69323 35.0268 1.29 35.5185 1.03729C36.0775 0.75 36.8093 0.75 38.2728 0.75H48.8725C56.6749 0.75 63 7.12994 63 15C63 22.8701 56.6749 29.25 48.8725 29.25H48.1545C47.5153 29.25 47.1958 29.25 46.895 29.1772C46.6284 29.1126 46.3735 29.0061 46.1397 28.8616C45.876 28.6986 45.65 28.4706 45.198 28.0148L34.0917 16.8121V25.0327C34.0917 26.5089 34.0917 27.247 33.8069 27.8108C33.5563 28.3068 33.1566 28.71 32.6649 28.9627C32.1059 29.25 31.3741 29.25 29.9106 29.25H10.1811Z" fill="white"/>
</svg>
