<svg width="105" height="106" viewBox="0 0 105 106" fill="none" xmlns="http://www.w3.org/2000/svg">
<g filter="url(#filter0_d_6650_89939)">
<rect x="16.625" y="2" width="72" height="72" rx="12" fill="#F8F8F8" fill-opacity="0.06" shape-rendering="crispEdges"/>
<rect x="17.375" y="2.75" width="70.5" height="70.5" rx="11.25" stroke="url(#paint0_linear_6650_89939)" stroke-opacity="0.15" stroke-width="1.5" shape-rendering="crispEdges"/>
<rect x="30.625" y="16" width="44" height="44" rx="22" fill="#F8F8F8" fill-opacity="0.13"/>
<g clip-path="url(#clip0_6650_89939)">
<path d="M46 38H44L53 29L62 38H60" stroke="white" stroke-linecap="round" stroke-linejoin="round"/>
<path d="M46 38V45C46 45.5304 46.2107 46.0391 46.5858 46.4142C46.9609 46.7893 47.4696 47 48 47H58C58.5304 47 59.0391 46.7893 59.4142 46.4142C59.7893 46.0391 60 45.5304 60 45V38" stroke="white" stroke-linecap="round" stroke-linejoin="round"/>
<path d="M50 47V41C50 40.4696 50.2107 39.9609 50.5858 39.5858C50.9609 39.2107 51.4696 39 52 39H54C54.5304 39 55.0391 39.2107 55.4142 39.5858C55.7893 39.9609 56 40.4696 56 41V47" stroke="white" stroke-linecap="round" stroke-linejoin="round"/>
</g>
</g>
<defs>
<filter id="filter0_d_6650_89939" x="-13.375" y="-28" width="132" height="133.2" filterUnits="userSpaceOnUse" color-interpolation-filters="sRGB">
<feFlood flood-opacity="0" result="BackgroundImageFix"/>
<feColorMatrix in="SourceAlpha" type="matrix" values="0 0 0 0 0 0 0 0 0 0 0 0 0 0 0 0 0 0 127 0" result="hardAlpha"/>
<feOffset dy="15"/>
<feGaussianBlur stdDeviation="8.1"/>
<feComposite in2="hardAlpha" operator="out"/>
<feColorMatrix type="matrix" values="0 0 0 0 0 0 0 0 0 0 0 0 0 0 0 0 0 0 0.1 0"/>
<feBlend mode="normal" in2="BackgroundImageFix" result="effect1_dropShadow_6650_89939"/>
<feBlend mode="normal" in="SourceGraphic" in2="effect1_dropShadow_6650_89939" result="shape"/>
</filter>
<linearGradient id="paint0_linear_6650_89939" x1="35.625" y1="2" x2="81.6404" y2="75.2438" gradientUnits="userSpaceOnUse">
<stop stop-color="white" stop-opacity="0.62"/>
<stop offset="0.4" stop-color="white" stop-opacity="0.01"/>
<stop offset="0.6" stop-color="white" stop-opacity="0.01"/>
<stop offset="1" stop-color="white" stop-opacity="0.1"/>
</linearGradient>
<clipPath id="clip0_6650_89939">
<rect width="24" height="24" fill="white" transform="translate(41 26)"/>
</clipPath>
</defs>
</svg>
