<svg width="61" height="30" viewBox="0 0 61 30" fill="none" xmlns="http://www.w3.org/2000/svg">
<path fill-rule="evenodd" clip-rule="evenodd" d="M11.4639 11.1734C11.9189 10.7282 11.6215 9.9546 10.9854 9.92881L0.696776 9.5117C0.307475 9.49592 1.75112e-06 9.17573 1.67677e-06 8.78611L1.38588e-07 0.726196C6.20481e-08 0.325132 0.325127 5.59248e-06 0.726191 5.51439e-06L28.3214 1.41395e-07C28.7225 6.33045e-08 29.0476 0.325128 29.0476 0.726191L29.0476 28.3214C29.0476 28.7225 28.7225 29.0476 28.3214 29.0476H20.4642C20.0688 29.0476 19.746 28.7313 19.7381 28.336L19.5419 18.5379C19.5291 17.8988 18.7564 17.5869 18.3035 18.0379L11.4 24.9117C11.1188 25.1917 10.6647 25.1941 10.3805 24.9169L4.4221 19.1038C4.13031 18.8191 4.12995 18.3501 4.42132 18.065L11.4639 11.1734Z" fill="#A2A2A2"/>
<path d="M51.4557 16.3014C51.4552 16.3014 51.4549 16.301 51.4549 16.3006V14.118C51.4549 11.5584 49.2909 9.48345 46.6216 9.48345C43.9523 9.48345 41.7884 11.5584 41.7884 14.118V28.3214C41.7884 28.7225 41.4633 29.0476 41.0622 29.0476H32.6793C32.2783 29.0476 31.9531 28.7225 31.9531 28.3214V0.726192C31.9531 0.325128 32.2783 0 32.6793 0H50.7088C51.1098 0 51.435 0.325127 51.435 0.72619V3.67393C51.435 6.88244 54.036 9.48345 57.2445 9.48345H60.2746C60.6756 9.48345 61.0007 9.80858 61.0007 10.2096V28.3214C61.0007 28.7225 60.6756 29.0476 60.2746 29.0476H52.1827C51.7817 29.0476 51.4565 28.7225 51.4565 28.3214V16.3022C51.4565 16.3018 51.4562 16.3014 51.4557 16.3014Z" fill="white"/>
</svg>
