<svg width="44" height="45" viewBox="0 0 44 45" fill="none" xmlns="http://www.w3.org/2000/svg">
<rect y="0.886719" width="44" height="44" rx="22" fill="#515151" fill-opacity="0.21"/>
<path d="M13.3913 25.5321C13.8443 25.6474 14.3313 25.7536 14.8481 25.8495C14.5507 26.2825 14.2815 26.7018 14.0429 27.1034C13.4592 28.0859 13.0435 28.988 12.8559 29.7436C12.6769 30.4641 12.6645 31.2283 13.1618 31.7256C13.6592 32.2229 14.4233 32.2105 15.1438 32.0316C15.8994 31.8439 16.8015 31.4282 17.784 30.8446C18.1855 30.606 18.6046 30.337 19.0374 30.0397C19.1333 30.556 19.2393 31.0427 19.3546 31.4954C19.6366 32.6028 19.9806 33.5346 20.3822 34.2016C20.7651 34.8377 21.2967 35.3867 22 35.3867C22.7033 35.3867 23.2349 34.8377 23.6178 34.2016C24.0194 33.5346 24.3634 32.6028 24.6454 31.4954C24.7606 31.0431 24.8666 30.5567 24.9624 30.0407C25.3953 30.3381 25.8145 30.6072 26.2161 30.8458C27.1985 31.4294 28.1007 31.8451 28.8562 32.0328C29.5768 32.2118 30.3409 32.2241 30.8382 31.7268C31.3355 31.2295 31.3232 30.4654 31.1442 29.7448C30.9565 28.9892 30.5409 28.0871 29.9572 27.1047C29.7184 26.7027 29.4489 26.283 29.1512 25.8496C29.6682 25.7537 30.1555 25.6475 30.6087 25.5321C31.7161 25.2501 32.6479 24.9061 33.3149 24.5046C33.9509 24.1216 34.5 23.59 34.5 22.8867C34.5 22.1834 33.9509 21.6518 33.3149 21.2689C32.6479 20.8673 31.7161 20.5233 30.6087 20.2413C30.1561 20.1261 29.6694 20.02 29.1532 19.9242C29.4506 19.4911 29.7199 19.0718 29.9585 18.6701C30.5421 17.6876 30.9578 16.7855 31.1455 16.0299C31.3245 15.3094 31.3368 14.5452 30.8395 14.0479C30.3422 13.5506 29.5781 13.563 28.8575 13.7419C28.1019 13.9296 27.1998 14.3453 26.2174 14.9289C25.8155 15.1677 25.396 15.437 24.9628 15.7346C24.8669 15.2179 24.7607 14.7309 24.6454 14.278C24.3634 13.1706 24.0194 12.2388 23.6178 11.5718C23.2349 10.9358 22.7033 10.3867 22 10.3867C21.2967 10.3867 20.7651 10.9358 20.3822 11.5718C19.9806 12.2388 19.6366 13.1706 19.3546 14.278C19.2392 14.7313 19.133 15.2186 19.037 15.7357C18.6039 15.4381 18.1845 15.1688 17.7827 14.9302C16.8002 14.3465 15.8981 13.9308 15.1426 13.7432C14.422 13.5642 13.6579 13.5518 13.1606 14.0491C12.6632 14.5465 12.6756 15.3106 12.8546 16.0311C13.0422 16.7867 13.4579 17.6888 14.0416 18.6713C14.28 19.0727 14.549 19.4916 14.8462 19.9243C14.3301 20.0201 13.8437 20.1261 13.3913 20.2413C12.2839 20.5233 11.3521 20.8673 10.6851 21.2689C10.0491 21.6518 9.5 22.1834 9.5 22.8867C9.5 23.59 10.0491 24.1216 10.6851 24.5046C11.3521 24.9061 12.2839 25.2501 13.3913 25.5321Z" stroke="#535353" stroke-linejoin="round"/>
<path d="M23.7978 26L19.5 19.21V19H20.2022L24.5 25.79V26H23.7978ZM19.5 26V19H20.2022V26H19.5ZM23.7978 26V19H24.5V26H23.7978Z" fill="#535353"/>
</svg>
