<svg width="106" height="106" viewBox="0 0 106 106" fill="none" xmlns="http://www.w3.org/2000/svg">
<g filter="url(#filter0_d_7165_89526)">
<rect x="17" y="2" width="72" height="72" rx="12" fill="#F8F8F8" fill-opacity="0.06" shape-rendering="crispEdges"/>
<rect x="17.75" y="2.75" width="70.5" height="70.5" rx="11.25" stroke="url(#paint0_linear_7165_89526)" stroke-opacity="0.15" stroke-width="1.5" shape-rendering="crispEdges"/>
<rect x="31" y="16" width="44" height="44" rx="22" fill="#F8F8F8" fill-opacity="0.13"/>
<path fill-rule="evenodd" clip-rule="evenodd" d="M52.1608 27.6461C53.0263 27.3576 53.962 27.3576 54.8275 27.6461L61.4991 29.8699C62.7617 30.2908 63.6133 31.4723 63.6133 32.8032V38.3922C63.6133 41.4699 62.2826 43.7415 60.399 45.5287C58.5472 47.2859 56.1256 48.607 53.8945 49.8107C53.6446 49.9455 53.3437 49.9455 53.0938 49.8107C50.8627 48.607 48.4411 47.2859 46.5892 45.5287C44.7057 43.7415 43.375 41.4699 43.375 38.3922V32.8032C43.375 31.4723 44.2266 30.2908 45.4892 29.8699L52.1608 27.6461ZM57.1824 36.2763C57.5117 35.947 57.5117 35.4131 57.1824 35.0838C56.8531 34.7544 56.3191 34.7544 55.9898 35.0838L52.3698 38.7038L50.9985 37.3325C50.6691 37.0031 50.1352 37.0031 49.8059 37.3325C49.4766 37.6618 49.4766 38.1957 49.8059 38.525L51.7735 40.4926C51.9317 40.6508 52.1461 40.7396 52.3698 40.7396C52.5934 40.7396 52.8079 40.6508 52.9661 40.4926L57.1824 36.2763Z" fill="#DFDFDF"/>
</g>
<defs>
<filter id="filter0_d_7165_89526" x="-13" y="-28" width="132" height="133.2" filterUnits="userSpaceOnUse" color-interpolation-filters="sRGB">
<feFlood flood-opacity="0" result="BackgroundImageFix"/>
<feColorMatrix in="SourceAlpha" type="matrix" values="0 0 0 0 0 0 0 0 0 0 0 0 0 0 0 0 0 0 127 0" result="hardAlpha"/>
<feOffset dy="15"/>
<feGaussianBlur stdDeviation="8.1"/>
<feComposite in2="hardAlpha" operator="out"/>
<feColorMatrix type="matrix" values="0 0 0 0 0 0 0 0 0 0 0 0 0 0 0 0 0 0 0.1 0"/>
<feBlend mode="normal" in2="BackgroundImageFix" result="effect1_dropShadow_7165_89526"/>
<feBlend mode="normal" in="SourceGraphic" in2="effect1_dropShadow_7165_89526" result="shape"/>
</filter>
<linearGradient id="paint0_linear_7165_89526" x1="36" y1="2" x2="82.0154" y2="75.2438" gradientUnits="userSpaceOnUse">
<stop stop-color="white" stop-opacity="0.62"/>
<stop offset="0.4" stop-color="white" stop-opacity="0.01"/>
<stop offset="0.6" stop-color="white" stop-opacity="0.01"/>
<stop offset="1" stop-color="white" stop-opacity="0.1"/>
</linearGradient>
</defs>
</svg>
