<svg width="108" height="109" viewBox="0 0 108 109" fill="none" xmlns="http://www.w3.org/2000/svg">
<g filter="url(#filter0_d_6650_88897)">
<path fill-rule="evenodd" clip-rule="evenodd" d="M88.2683 42.4488C88.3013 40.3952 86.5154 38.7305 84.2792 38.7305C74.6768 38.7305 66.7775 45.8792 66.6356 54.6976C66.4936 63.516 74.1628 70.6647 83.7652 70.6647C86.0013 70.6647 87.8409 69 87.874 66.9464C87.907 64.8928 86.121 63.228 83.8849 63.228C78.7548 63.228 74.6576 59.4088 74.7334 54.6976C74.8093 49.9864 79.0295 46.1672 84.1595 46.1672C86.3957 46.1672 88.2352 44.5024 88.2683 42.4488Z" fill="url(#paint0_linear_6650_88897)" shape-rendering="crispEdges"/>
<path d="M87.7979 42.4488C87.8262 40.6919 86.2864 39.2008 84.2716 39.2008C74.8906 39.2008 67.2431 46.1758 67.1059 54.6976C66.9688 63.2194 74.3917 70.1944 83.7727 70.1944C85.7876 70.1944 87.3753 68.7033 87.4036 66.9464C87.4318 65.1894 85.8921 63.6983 83.8773 63.6983C78.5259 63.6983 74.1824 59.7054 74.263 54.6976C74.3436 49.6898 78.8157 45.6969 84.1671 45.6969C86.1819 45.6969 87.7696 44.2058 87.7979 42.4488Z" stroke="url(#paint1_linear_6650_88897)" stroke-width="0.94079" shape-rendering="crispEdges"/>
</g>
<g filter="url(#filter1_d_6650_88897)">
<path fill-rule="evenodd" clip-rule="evenodd" d="M19.1966 66.4301C19.1635 68.4837 20.9495 70.1484 23.1857 70.1484C32.788 70.1484 40.6873 62.9997 40.8293 54.1813C40.9712 45.3629 33.302 38.2142 23.6997 38.2142C21.4635 38.2142 19.6239 39.879 19.5909 41.9326C19.5578 43.9862 21.3438 45.6509 23.58 45.6509C28.71 45.6509 32.8072 49.4701 32.7314 54.1813C32.6556 58.8925 28.4354 62.7117 23.3054 62.7117C21.0692 62.7117 19.2296 64.3765 19.1966 66.4301Z" fill="url(#paint2_linear_6650_88897)" shape-rendering="crispEdges"/>
<path d="M19.667 66.4301C19.6387 68.1871 21.1784 69.6781 23.1932 69.6781C32.5743 69.6781 40.2217 62.7031 40.3589 54.1813C40.4961 45.6595 33.0731 38.6845 23.6921 38.6845C21.6773 38.6845 20.0896 40.1756 20.0613 41.9326C20.033 43.6895 21.5727 45.1806 23.5875 45.1806C28.9389 45.1806 33.2824 49.1735 33.2018 54.1813C33.1212 59.1891 28.6492 63.182 23.2978 63.182C21.283 63.182 19.6952 64.6731 19.667 66.4301Z" stroke="url(#paint3_linear_6650_88897)" stroke-width="0.94079" shape-rendering="crispEdges"/>
</g>
<g filter="url(#filter2_d_6650_88897)">
<path fill-rule="evenodd" clip-rule="evenodd" d="M67.179 89.315C69.3691 89.346 71.1445 87.6713 71.1445 85.5746C71.1445 76.5708 63.5206 69.1639 54.1159 69.0308C44.7112 68.8977 37.0873 76.0888 37.0873 85.0926C37.0873 87.1894 38.8627 88.9142 41.0528 88.9452C43.243 88.9762 45.0184 87.3016 45.0184 85.2048C45.0184 80.3946 49.0915 76.5527 54.1159 76.6238C59.1403 76.695 63.2134 80.6521 63.2134 85.4623C63.2134 87.5591 64.9888 89.284 67.179 89.315Z" fill="url(#paint4_linear_6650_88897)" shape-rendering="crispEdges"/>
<path d="M67.179 88.8446C69.1289 88.8722 70.6742 87.3857 70.6742 85.5679C70.6742 76.843 63.2804 69.6309 54.1159 69.5012C44.9514 69.3715 37.5576 76.3744 37.5576 85.0992C37.5576 86.9171 39.1029 88.4473 41.0528 88.4748C43.0028 88.5024 44.5481 87.016 44.5481 85.1982C44.5481 80.109 48.8513 76.079 54.1159 76.1535C59.3805 76.228 63.6837 80.3798 63.6837 85.469C63.6837 87.2868 65.229 88.817 67.179 88.8446Z" stroke="url(#paint5_linear_6650_88897)" stroke-width="0.94079" shape-rendering="crispEdges"/>
</g>
<g filter="url(#filter3_d_6650_88897)">
<path fill-rule="evenodd" clip-rule="evenodd" d="M68.2805 19.6108C70.4706 19.5798 72.2461 21.2545 72.2461 23.3512C72.2461 32.355 64.6221 39.7619 55.2175 39.895C45.8128 40.0281 38.1888 32.837 38.1888 23.8332C38.1888 21.7364 39.9643 20.0115 42.1544 19.9805C44.3445 19.9495 46.12 21.6242 46.12 23.721C46.12 28.5312 50.1931 32.373 55.2175 32.3019C60.2419 32.2308 64.3149 28.2737 64.3149 23.4635C64.3149 21.3667 66.0904 19.6418 68.2805 19.6108Z" fill="url(#paint6_linear_6650_88897)" shape-rendering="crispEdges"/>
<path d="M68.2805 20.0812C70.2304 20.0536 71.7757 21.54 71.7757 23.3579C71.7757 32.0827 64.3819 39.2949 55.2175 39.4246C46.053 39.5543 38.6592 32.5514 38.6592 23.8265C38.6592 22.0087 40.2045 20.4785 42.1544 20.4509C44.1043 20.4233 45.6496 21.9098 45.6496 23.7276C45.6496 28.8168 49.9529 32.8468 55.2175 32.7723C60.4821 32.6978 64.7853 28.546 64.7853 23.4568C64.7853 21.639 66.3306 20.1088 68.2805 20.0812Z" stroke="url(#paint7_linear_6650_88897)" stroke-width="0.94079" shape-rendering="crispEdges"/>
</g>
<g filter="url(#filter4_d_6650_88897)">
<path fill-rule="evenodd" clip-rule="evenodd" d="M87.7907 39.9614C89.1662 41.5597 88.8535 43.9028 87.0922 45.1948C79.5292 50.7426 68.61 49.676 62.7034 42.8125C56.7968 35.9489 58.1395 25.8876 65.7025 20.3397C67.4638 19.0478 70.0066 19.2962 71.3821 20.8945C72.7576 22.4929 72.4449 24.8359 70.6837 26.1279C66.6432 29.0918 65.9258 34.4671 69.0814 38.1339C72.237 41.8007 78.0706 42.3705 82.1111 39.4066C83.8723 38.1147 86.4152 38.363 87.7907 39.9614Z" fill="url(#paint8_linear_6650_88897)" shape-rendering="crispEdges"/>
<path d="M87.4114 40.2396C88.6073 41.6293 88.3499 43.6906 86.7854 44.8382C79.4192 50.2417 68.8097 49.1891 63.0826 42.5342C57.3556 35.8793 58.6431 26.0998 66.0094 20.6963C67.5738 19.5487 69.8069 19.783 71.0028 21.1728C72.1988 22.5625 71.9413 24.6238 70.3768 25.7714C66.1396 28.8796 65.367 34.5366 68.7021 38.4121C72.0372 42.2876 78.1806 42.8714 82.4179 39.7632C83.9824 38.6155 86.2154 38.8499 87.4114 40.2396Z" stroke="url(#paint9_linear_6650_88897)" stroke-width="0.94079" shape-rendering="crispEdges"/>
</g>
<g filter="url(#filter5_d_6650_88897)">
<path fill-rule="evenodd" clip-rule="evenodd" d="M21.1608 39.0744C19.6913 40.5974 19.8625 42.9533 21.5431 44.3364C28.7601 50.2756 39.7262 49.7886 46.0365 43.2486C52.3469 36.7087 51.6119 26.5923 44.3949 20.653C42.7142 19.2699 40.1605 19.3833 38.6909 20.9063C37.2214 22.4293 37.3926 24.7852 39.0732 26.1683C42.9289 29.3413 43.3216 34.746 39.9503 38.24C36.579 41.7339 30.7204 41.9941 26.8648 38.8211C25.1841 37.438 22.6304 37.5514 21.1608 39.0744Z" fill="url(#paint10_linear_6650_88897)" shape-rendering="crispEdges"/>
<path d="M21.524 39.3733C20.2435 40.7005 20.38 42.7719 21.8697 43.9979C28.8958 49.78 39.5519 49.2939 45.6733 42.9497C51.7947 36.6056 51.0943 26.7736 44.0683 20.9915C42.5785 19.7655 40.3347 19.8781 39.0542 21.2052C37.7736 22.5324 37.9101 24.6038 39.3999 25.8298C43.4464 29.1599 43.8737 34.8491 40.3135 38.5389C36.7532 42.2287 30.5847 42.4897 26.5381 39.1596C25.0484 37.9336 22.8046 38.0461 21.524 39.3733Z" stroke="url(#paint11_linear_6650_88897)" stroke-width="0.94079" shape-rendering="crispEdges"/>
</g>
<g filter="url(#filter6_d_6650_88897)">
<path fill-rule="evenodd" clip-rule="evenodd" d="M86.1305 69.0386C87.506 67.4403 87.1933 65.0972 85.4321 63.8052C77.8691 58.2574 66.9498 59.324 61.0432 66.1875C55.1366 73.0511 56.4794 83.1124 64.0424 88.6603C65.8036 89.9522 68.3465 89.7038 69.722 88.1055C71.0975 86.5071 70.7848 84.1641 69.0235 82.8721C64.983 79.9082 64.2657 74.5329 67.4212 70.8661C70.5768 67.1993 76.4104 66.6295 80.4509 69.5934C82.2122 70.8853 84.755 70.637 86.1305 69.0386Z" fill="url(#paint12_linear_6650_88897)" shape-rendering="crispEdges"/>
<path d="M85.7512 68.7604C86.9472 67.3707 86.6897 65.3094 85.1252 64.1618C77.759 58.7583 67.1495 59.8109 61.4225 66.4658C55.6954 73.1207 56.983 82.9002 64.3492 88.3037C65.9137 89.4513 68.1467 89.217 69.3427 87.8272C70.5386 86.4375 70.2812 84.3762 68.7167 83.2286C64.4794 80.1204 63.7068 74.4634 67.0419 70.5879C70.3771 66.7124 76.5205 66.1286 80.7577 69.2368C82.3222 70.3845 84.5553 70.1501 85.7512 68.7604Z" stroke="url(#paint13_linear_6650_88897)" stroke-width="0.94079" shape-rendering="crispEdges"/>
</g>
<g filter="url(#filter7_d_6650_88897)">
<path fill-rule="evenodd" clip-rule="evenodd" d="M21.3343 68.5191C19.9588 66.9207 20.2715 64.5777 22.0328 63.2857C29.5958 57.7379 40.515 58.8045 46.4216 65.668C52.3282 72.5315 50.9855 82.5929 43.4225 88.1407C41.6612 89.4327 39.1184 89.1843 37.7429 87.5859C36.3674 85.9876 36.6801 83.6445 38.4413 82.3526C42.4818 79.3887 43.1992 74.0134 40.0436 70.3466C36.888 66.6798 31.0544 66.11 27.0139 69.0739C25.2527 70.3658 22.7098 70.1174 21.3343 68.5191Z" fill="url(#paint14_linear_6650_88897)" shape-rendering="crispEdges"/>
<path d="M21.7136 68.2408C20.5177 66.8511 20.7751 64.7899 22.3396 63.6423C29.7058 58.2388 40.3153 59.2914 46.0424 65.9462C51.7694 72.6011 50.4819 82.3807 43.1156 87.7842C41.5512 88.9318 39.3181 88.6974 38.1222 87.3077C36.9262 85.918 37.1837 83.8567 38.7482 82.7091C42.9854 79.6009 43.758 73.9438 40.4229 70.0684C37.0878 66.1929 30.9444 65.6091 26.7071 68.7173C25.1426 69.8649 22.9096 69.6306 21.7136 68.2408Z" stroke="url(#paint15_linear_6650_88897)" stroke-width="0.94079" shape-rendering="crispEdges"/>
</g>
<defs>
<filter id="filter0_d_6650_88897" x="47.6289" y="19.7265" width="59.6446" height="69.9415" filterUnits="userSpaceOnUse" color-interpolation-filters="sRGB">
<feFlood flood-opacity="0" result="BackgroundImageFix"/>
<feColorMatrix in="SourceAlpha" type="matrix" values="0 0 0 0 0 0 0 0 0 0 0 0 0 0 0 0 0 0 127 0" result="hardAlpha"/>
<feOffset/>
<feGaussianBlur stdDeviation="9.50198"/>
<feComposite in2="hardAlpha" operator="out"/>
<feColorMatrix type="matrix" values="0 0 0 0 1 0 0 0 0 1 0 0 0 0 1 0 0 0 0.35 0"/>
<feBlend mode="normal" in2="BackgroundImageFix" result="effect1_dropShadow_6650_88897"/>
<feBlend mode="normal" in="SourceGraphic" in2="effect1_dropShadow_6650_88897" result="shape"/>
</filter>
<filter id="filter1_d_6650_88897" x="0.191357" y="19.2109" width="59.6446" height="69.9415" filterUnits="userSpaceOnUse" color-interpolation-filters="sRGB">
<feFlood flood-opacity="0" result="BackgroundImageFix"/>
<feColorMatrix in="SourceAlpha" type="matrix" values="0 0 0 0 0 0 0 0 0 0 0 0 0 0 0 0 0 0 127 0" result="hardAlpha"/>
<feOffset/>
<feGaussianBlur stdDeviation="9.50198"/>
<feComposite in2="hardAlpha" operator="out"/>
<feColorMatrix type="matrix" values="0 0 0 0 1 0 0 0 0 1 0 0 0 0 1 0 0 0 0.35 0"/>
<feBlend mode="normal" in2="BackgroundImageFix" result="effect1_dropShadow_6650_88897"/>
<feBlend mode="normal" in="SourceGraphic" in2="effect1_dropShadow_6650_88897" result="shape"/>
</filter>
<filter id="filter2_d_6650_88897" x="18.082" y="50.0234" width="72.0665" height="58.297" filterUnits="userSpaceOnUse" color-interpolation-filters="sRGB">
<feFlood flood-opacity="0" result="BackgroundImageFix"/>
<feColorMatrix in="SourceAlpha" type="matrix" values="0 0 0 0 0 0 0 0 0 0 0 0 0 0 0 0 0 0 127 0" result="hardAlpha"/>
<feOffset/>
<feGaussianBlur stdDeviation="9.50198"/>
<feComposite in2="hardAlpha" operator="out"/>
<feColorMatrix type="matrix" values="0 0 0 0 1 0 0 0 0 1 0 0 0 0 1 0 0 0 0.35 0"/>
<feBlend mode="normal" in2="BackgroundImageFix" result="effect1_dropShadow_6650_88897"/>
<feBlend mode="normal" in="SourceGraphic" in2="effect1_dropShadow_6650_88897" result="shape"/>
</filter>
<filter id="filter3_d_6650_88897" x="19.1835" y="0.605419" width="72.0665" height="58.297" filterUnits="userSpaceOnUse" color-interpolation-filters="sRGB">
<feFlood flood-opacity="0" result="BackgroundImageFix"/>
<feColorMatrix in="SourceAlpha" type="matrix" values="0 0 0 0 0 0 0 0 0 0 0 0 0 0 0 0 0 0 127 0" result="hardAlpha"/>
<feOffset/>
<feGaussianBlur stdDeviation="9.50198"/>
<feComposite in2="hardAlpha" operator="out"/>
<feColorMatrix type="matrix" values="0 0 0 0 1 0 0 0 0 1 0 0 0 0 1 0 0 0 0.35 0"/>
<feBlend mode="normal" in2="BackgroundImageFix" result="effect1_dropShadow_6650_88897"/>
<feBlend mode="normal" in="SourceGraphic" in2="effect1_dropShadow_6650_88897" result="shape"/>
</filter>
<filter id="filter4_d_6650_88897" x="40.0156" y="0.507763" width="67.6368" height="67.2423" filterUnits="userSpaceOnUse" color-interpolation-filters="sRGB">
<feFlood flood-opacity="0" result="BackgroundImageFix"/>
<feColorMatrix in="SourceAlpha" type="matrix" values="0 0 0 0 0 0 0 0 0 0 0 0 0 0 0 0 0 0 127 0" result="hardAlpha"/>
<feOffset/>
<feGaussianBlur stdDeviation="9.50198"/>
<feComposite in2="hardAlpha" operator="out"/>
<feColorMatrix type="matrix" values="0 0 0 0 1 0 0 0 0 1 0 0 0 0 1 0 0 0 0.35 0"/>
<feBlend mode="normal" in2="BackgroundImageFix" result="effect1_dropShadow_6650_88897"/>
<feBlend mode="normal" in="SourceGraphic" in2="effect1_dropShadow_6650_88897" result="shape"/>
</filter>
<filter id="filter5_d_6650_88897" x="1.1562" y="0.679638" width="68.1759" height="66.8165" filterUnits="userSpaceOnUse" color-interpolation-filters="sRGB">
<feFlood flood-opacity="0" result="BackgroundImageFix"/>
<feColorMatrix in="SourceAlpha" type="matrix" values="0 0 0 0 0 0 0 0 0 0 0 0 0 0 0 0 0 0 127 0" result="hardAlpha"/>
<feOffset/>
<feGaussianBlur stdDeviation="9.50198"/>
<feComposite in2="hardAlpha" operator="out"/>
<feColorMatrix type="matrix" values="0 0 0 0 1 0 0 0 0 1 0 0 0 0 1 0 0 0 0.35 0"/>
<feBlend mode="normal" in2="BackgroundImageFix" result="effect1_dropShadow_6650_88897"/>
<feBlend mode="normal" in="SourceGraphic" in2="effect1_dropShadow_6650_88897" result="shape"/>
</filter>
<filter id="filter6_d_6650_88897" x="38.3554" y="41.25" width="67.6368" height="67.2423" filterUnits="userSpaceOnUse" color-interpolation-filters="sRGB">
<feFlood flood-opacity="0" result="BackgroundImageFix"/>
<feColorMatrix in="SourceAlpha" type="matrix" values="0 0 0 0 0 0 0 0 0 0 0 0 0 0 0 0 0 0 127 0" result="hardAlpha"/>
<feOffset/>
<feGaussianBlur stdDeviation="9.50198"/>
<feComposite in2="hardAlpha" operator="out"/>
<feColorMatrix type="matrix" values="0 0 0 0 1 0 0 0 0 1 0 0 0 0 1 0 0 0 0.35 0"/>
<feBlend mode="normal" in2="BackgroundImageFix" result="effect1_dropShadow_6650_88897"/>
<feBlend mode="normal" in="SourceGraphic" in2="effect1_dropShadow_6650_88897" result="shape"/>
</filter>
<filter id="filter7_d_6650_88897" x="1.47261" y="40.7304" width="67.6368" height="67.2423" filterUnits="userSpaceOnUse" color-interpolation-filters="sRGB">
<feFlood flood-opacity="0" result="BackgroundImageFix"/>
<feColorMatrix in="SourceAlpha" type="matrix" values="0 0 0 0 0 0 0 0 0 0 0 0 0 0 0 0 0 0 127 0" result="hardAlpha"/>
<feOffset/>
<feGaussianBlur stdDeviation="9.50198"/>
<feComposite in2="hardAlpha" operator="out"/>
<feColorMatrix type="matrix" values="0 0 0 0 1 0 0 0 0 1 0 0 0 0 1 0 0 0 0.35 0"/>
<feBlend mode="normal" in2="BackgroundImageFix" result="effect1_dropShadow_6650_88897"/>
<feBlend mode="normal" in="SourceGraphic" in2="effect1_dropShadow_6650_88897" result="shape"/>
</filter>
<linearGradient id="paint0_linear_6650_88897" x1="81.4537" y1="38.622" x2="66.589" y2="59.6579" gradientUnits="userSpaceOnUse">
<stop stop-color="#F8F8F8" stop-opacity="0.9"/>
<stop offset="1" stop-color="#F8F8F8" stop-opacity="0.2"/>
</linearGradient>
<linearGradient id="paint1_linear_6650_88897" x1="77.6103" y1="38.7305" x2="77.6103" y2="70.6647" gradientUnits="userSpaceOnUse">
<stop stop-color="#999999" stop-opacity="0"/>
<stop offset="1" stop-color="#F6F6F6"/>
</linearGradient>
<linearGradient id="paint2_linear_6650_88897" x1="26.0111" y1="70.2569" x2="40.8758" y2="49.221" gradientUnits="userSpaceOnUse">
<stop stop-color="#F8F8F8" stop-opacity="0.9"/>
<stop offset="1" stop-color="#F8F8F8" stop-opacity="0.2"/>
</linearGradient>
<linearGradient id="paint3_linear_6650_88897" x1="29.8545" y1="70.1484" x2="29.8545" y2="38.2142" gradientUnits="userSpaceOnUse">
<stop stop-color="#999999" stop-opacity="0"/>
<stop offset="1" stop-color="#F6F6F6"/>
</linearGradient>
<linearGradient id="paint4_linear_6650_88897" x1="71.2602" y1="82.9252" x2="50.8243" y2="66.5006" gradientUnits="userSpaceOnUse">
<stop stop-color="#F8F8F8" stop-opacity="0.9"/>
<stop offset="1" stop-color="#F8F8F8" stop-opacity="0.2"/>
</linearGradient>
<linearGradient id="paint5_linear_6650_88897" x1="71.1445" y1="79.3214" x2="37.0873" y2="79.3214" gradientUnits="userSpaceOnUse">
<stop stop-color="#999999" stop-opacity="0"/>
<stop offset="1" stop-color="#F6F6F6"/>
</linearGradient>
<linearGradient id="paint6_linear_6650_88897" x1="72.3618" y1="26.0006" x2="51.9258" y2="42.4252" gradientUnits="userSpaceOnUse">
<stop stop-color="#F8F8F8" stop-opacity="0.9"/>
<stop offset="1" stop-color="#F8F8F8" stop-opacity="0.2"/>
</linearGradient>
<linearGradient id="paint7_linear_6650_88897" x1="72.2461" y1="29.6044" x2="38.1888" y2="29.6044" gradientUnits="userSpaceOnUse">
<stop stop-color="#999999" stop-opacity="0"/>
<stop offset="1" stop-color="#F6F6F6"/>
</linearGradient>
<linearGradient id="paint8_linear_6650_88897" x1="84.9381" y1="46.9126" x2="59.2216" y2="39.5836" gradientUnits="userSpaceOnUse">
<stop stop-color="#F8F8F8" stop-opacity="0.9"/>
<stop offset="1" stop-color="#F8F8F8" stop-opacity="0.2"/>
</linearGradient>
<linearGradient id="paint9_linear_6650_88897" x1="81.8397" y1="49.0477" x2="62.5028" y2="22.6869" gradientUnits="userSpaceOnUse">
<stop stop-color="#999999" stop-opacity="0"/>
<stop offset="1" stop-color="#F6F6F6"/>
</linearGradient>
<linearGradient id="paint10_linear_6650_88897" x1="23.5904" y1="46.1655" x2="49.7441" y2="40.3762" gradientUnits="userSpaceOnUse">
<stop stop-color="#F8F8F8" stop-opacity="0.9"/>
<stop offset="1" stop-color="#F8F8F8" stop-opacity="0.2"/>
</linearGradient>
<linearGradient id="paint11_linear_6650_88897" x1="26.5553" y1="48.4612" x2="47.4029" y2="23.1285" gradientUnits="userSpaceOnUse">
<stop stop-color="#F6F6F6"/>
<stop offset="1" stop-color="#999999" stop-opacity="0"/>
</linearGradient>
<linearGradient id="paint12_linear_6650_88897" x1="83.2779" y1="62.0874" x2="57.5614" y2="69.4164" gradientUnits="userSpaceOnUse">
<stop stop-color="#F8F8F8" stop-opacity="0.9"/>
<stop offset="1" stop-color="#F8F8F8" stop-opacity="0.2"/>
</linearGradient>
<linearGradient id="paint13_linear_6650_88897" x1="80.1796" y1="59.9523" x2="60.8427" y2="86.3131" gradientUnits="userSpaceOnUse">
<stop stop-color="#999999" stop-opacity="0"/>
<stop offset="1" stop-color="#F6F6F6"/>
</linearGradient>
<linearGradient id="paint14_linear_6650_88897" x1="24.1869" y1="61.5678" x2="49.9034" y2="68.8969" gradientUnits="userSpaceOnUse">
<stop stop-color="#F8F8F8" stop-opacity="0.2"/>
<stop offset="1" stop-color="#F8F8F8" stop-opacity="0.9"/>
</linearGradient>
<linearGradient id="paint15_linear_6650_88897" x1="27.2853" y1="59.4328" x2="46.6222" y2="85.7936" gradientUnits="userSpaceOnUse">
<stop stop-color="#F6F6F6"/>
<stop offset="1" stop-color="#999999" stop-opacity="0"/>
</linearGradient>
</defs>
</svg>
