<svg width="106" height="106" viewBox="0 0 106 106" fill="none" xmlns="http://www.w3.org/2000/svg">
<g filter="url(#filter0_d_7165_89501)">
<rect x="17" y="2" width="72" height="72" rx="12" fill="#F8F8F8" fill-opacity="0.06" shape-rendering="crispEdges"/>
<rect x="17.75" y="2.75" width="70.5" height="70.5" rx="11.25" stroke="url(#paint0_linear_7165_89501)" stroke-opacity="0.15" stroke-width="1.5" shape-rendering="crispEdges"/>
<rect x="31" y="16" width="44" height="44" rx="22" fill="#F8F8F8" fill-opacity="0.13"/>
<g filter="url(#filter1_d_7165_89501)">
<path fill-rule="evenodd" clip-rule="evenodd" d="M52.5 44.24C52.5 45.212 51.712 46 50.74 46H46.26C45.288 46 44.5 45.212 44.5 44.24V39.7024C44.5 38.7304 45.288 37.9425 46.26 37.9425H50.74C51.712 37.9425 52.5 37.1545 52.5 36.1825V31.76C52.5 30.788 53.288 30 54.26 30H58.74C59.712 30 60.5 30.788 60.5 31.76V36.2976C60.5 37.2696 59.712 38.0576 58.74 38.0576H54.26C53.288 38.0576 52.5 38.8455 52.5 39.8176V44.24Z" fill="#F8F8F8"/>
</g>
</g>
<defs>
<filter id="filter0_d_7165_89501" x="-13" y="-28" width="132" height="133.2" filterUnits="userSpaceOnUse" color-interpolation-filters="sRGB">
<feFlood flood-opacity="0" result="BackgroundImageFix"/>
<feColorMatrix in="SourceAlpha" type="matrix" values="0 0 0 0 0 0 0 0 0 0 0 0 0 0 0 0 0 0 127 0" result="hardAlpha"/>
<feOffset dy="15"/>
<feGaussianBlur stdDeviation="8.1"/>
<feComposite in2="hardAlpha" operator="out"/>
<feColorMatrix type="matrix" values="0 0 0 0 0 0 0 0 0 0 0 0 0 0 0 0 0 0 0.1 0"/>
<feBlend mode="normal" in2="BackgroundImageFix" result="effect1_dropShadow_7165_89501"/>
<feBlend mode="normal" in="SourceGraphic" in2="effect1_dropShadow_7165_89501" result="shape"/>
</filter>
<filter id="filter1_d_7165_89501" x="43.5" y="29" width="18" height="18" filterUnits="userSpaceOnUse" color-interpolation-filters="sRGB">
<feFlood flood-opacity="0" result="BackgroundImageFix"/>
<feColorMatrix in="SourceAlpha" type="matrix" values="0 0 0 0 0 0 0 0 0 0 0 0 0 0 0 0 0 0 127 0" result="hardAlpha"/>
<feOffset/>
<feGaussianBlur stdDeviation="0.5"/>
<feComposite in2="hardAlpha" operator="out"/>
<feColorMatrix type="matrix" values="0 0 0 0 1 0 0 0 0 1 0 0 0 0 1 0 0 0 1 0"/>
<feBlend mode="normal" in2="BackgroundImageFix" result="effect1_dropShadow_7165_89501"/>
<feBlend mode="normal" in="SourceGraphic" in2="effect1_dropShadow_7165_89501" result="shape"/>
</filter>
<linearGradient id="paint0_linear_7165_89501" x1="36" y1="2" x2="82.0154" y2="75.2438" gradientUnits="userSpaceOnUse">
<stop stop-color="white" stop-opacity="0.62"/>
<stop offset="0.4" stop-color="white" stop-opacity="0.01"/>
<stop offset="0.6" stop-color="white" stop-opacity="0.01"/>
<stop offset="1" stop-color="white" stop-opacity="0.1"/>
</linearGradient>
</defs>
</svg>
